<?xml version="1.0" standalone="no"?>
<!DOCTYPE svg PUBLIC "-//W3C//DTD SVG 20010904//EN"
 "http://www.w3.org/TR/2001/REC-SVG-20010904/DTD/svg10.dtd">
<svg version="1.0" xmlns="http://www.w3.org/2000/svg"
 width="512.000000pt" height="512.000000pt" viewBox="0 0 512.000000 512.000000"
 preserveAspectRatio="xMidYMid meet">
<metadata>
Created by potrace 1.11, written by Peter Selinger 2001-2013
</metadata>
<g transform="translate(0.000000,512.000000) scale(0.100000,-0.100000)"
fill="#000000" stroke="none">
<path d="M2370 4961 c-1178 -1067 -1825 -2292 -1719 -3259 87 -806 676 -1467
1474 -1655 152 -36 254 -47 435 -47 192 0 297 13 466 55 224 56 412 140 610
274 599 402 905 1067 833 1807 -78 806 -633 1773 -1502 2621 -199 193 -390
363 -408 363 -8 0 -93 -72 -189 -159z m1259 -2212 c78 -176 134 -345 168 -506
23 -112 27 -151 27 -313 0 -205 -15 -300 -73 -459 -126 -346 -434 -639 -799
-761 -248 -83 -538 -82 -786 1 -90 30 -261 113 -306 149 l-25 20 152 0 c171 0
265 11 403 45 179 45 364 129 525 239 125 84 334 294 414 415 247 373 324 790
235 1278 -4 21 -4 36 -1 33 3 -3 33 -66 66 -141z"/>
</g>
</svg>
